Coordinates
version=1
nRows=6
nColumns=36
inDegrees=yes

Units are S.I. units (second, meters, Newtons, ...)
If the header above contains a line with 'inDegrees', this indicates whether rotational values are in degrees (yes) or radians (no).

endheader
time	pelvis_tilt	pelvis_list	pelvis_rotation	pelvis_tx	pelvis_ty	pelvis_tz	hip_flexion_r	hip_adduction_r	hip_rotation_r	knee_angle_r	knee_angle_r_beta	ankle_angle_r	subtalar_angle_r	mtp_angle_r	hip_flexion_l	hip_adduction_l	hip_rotation_l	knee_angle_l	knee_angle_l_beta	ankle_angle_l	subtalar_angle_l	mtp_angle_l	lumbar_extension	lumbar_bending	lumbar_rotation	arm_flex_r	arm_add_r	arm_rot_r	elbow_flex_r	pro_sup_r	arm_flex_l	arm_add_l	arm_rot_l	elbow_flex_l	pro_sup_l
     44.83333330	      0.82683098	     -5.70470393	     -3.43108315	      0.60459215	      0.93230098	      0.74991886	      9.22428045	      8.81653939	     -0.80598477	     16.46651302	      0.28739487	     10.48917756	     -9.71599149	     -7.49999987	      9.20837790	     -8.87980668	     -4.48381778	     59.73194804	      1.04251916	     -3.28839608	    -14.42174634	     -7.49999987	     -3.19225926	      7.86825699	     -0.28195537	      1.73030209	    -13.26464782	     -0.95282495	     18.65021393	     78.80548139	      5.79933235	     -7.32753684	      1.04437585	     23.54771281	     78.41624829
     44.85000000	      1.10983853	     -4.81721253	     -4.36193665	      0.60157808	      0.93303814	      0.75199605	      6.78780787	      8.00826614	     -0.08470203	     15.08974053	      0.26336566	     11.09769160	     -8.87576753	     -7.49999987	     11.79575043	     -8.00853197	     -5.12317720	     59.48249972	      1.03816547	     -1.80419186	    -15.00508973	     -7.49999987	     -3.94385949	      6.85864234	      0.85550252	      3.41014666	    -13.51916744	     -0.83681435	     19.89855715	     77.68525900	      4.51109135	     -7.57349727	      1.18186425	     22.78748210	     77.43154658
     44.86666670	      1.24366200	     -3.94133214	     -5.46469286	      0.59771640	      0.93323712	      0.75236391	      4.72353234	      7.13972626	      0.69347715	     13.92164430	      0.24297853	     11.62315686	     -8.15531761	     -7.49999987	     14.30056639	     -7.18554011	     -6.05377863	     58.38475226	      1.01900616	     -0.09677166	    -14.95479681	     -7.49999987	     -4.49580585	      5.82793663	      2.32465468	      5.23224347	    -13.91697225	     -0.29750502	     21.12054476	     76.80898112	      3.56463746	     -7.72249629	      1.55698583	     21.68674633	     76.66875939
     44.88333330	      1.53655299	     -3.13614284	     -6.28368452	      0.59161583	      0.93313896	      0.75090083	      2.68096990	      6.23077450	      1.19240392	     12.88182749	      0.22483030	     11.99298745	     -7.64068646	     -7.49999987	     16.42295823	     -6.31537159	     -6.87171611	     56.36200433	      0.98370255	      2.03308195	    -14.39111501	     -7.49999987	     -5.48999382	      4.81260623	      3.76624213	      7.21201204	    -14.46890084	      0.51878634	     22.98328209	     75.46084589	      2.96428184	     -7.90179283	      2.32132205	     21.11248781	     75.38724884
     44.90000000	      1.60221203	     -2.44923839	     -6.87972666	      0.58286621	      0.93267751	      0.74857273	      1.17561007	      5.39009332	      1.29811241	     12.18254253	      0.21262548	     12.36744082	     -7.02388859	     -7.49999987	     18.55090294	     -5.53341257	     -7.69268096	     53.40467395	      0.93208740	      4.32026585	    -13.35734858	     -7.49999987	     -6.26959492	      3.98232969	      4.90962359	      9.43944942	    -15.15407143	      1.65412657	     24.95178495	     74.64033861	      2.65542834	     -8.09447604	      3.21707419	     20.13778698	     74.63132403
     44.91666670	      1.07753107	     -1.83794227	     -7.33160917	      0.57401190	      0.93090097	      0.74670741	      0.65962619	      4.70049437	      1.46204428	     11.93196115	      0.20825201	     12.65640809	     -7.04066849	     -7.49999987	     21.08402777	     -4.93364127	     -8.54897516	     49.75555837	      0.86839831	      6.20120888	    -12.05196684	     -7.49999987	     -6.25168424	      3.29027923	      6.36722235	     11.34855171	    -16.57992319	      5.34049790	     26.46848437	     76.87644809	      3.14630891	     -8.35679474	      6.64681841	     17.65772155	     77.76608107
